<svg width="91" height="91" viewBox="0 0 91 91" fill="none" xmlns="http://www.w3.org/2000/svg">
<path d="M45.5 23.5C33.4 23.5 23.5 33.4 23.5 45.5C23.5 57.6 33.4 67.5 45.5 67.5C57.6 67.5 67.5 57.6 67.5 45.5C67.5 33.4 57.6 23.5 45.5 23.5ZM45.5 59.5C37.8 59.5 31.5 53.2 31.5 45.5C31.5 37.8 37.8 31.5 45.5 31.5C53.2 31.5 59.5 37.8 59.5 45.5C59.5 53.2 53.2 59.5 45.5 59.5Z" fill="white"/>
<path d="M45.5 16.2C47.7 16.2 49.5 14.4 49.5 12.2V4.1C49.5 1.9 47.7 0.0999985 45.5 0.0999985C43.3 0.0999985 41.5 1.9 41.5 4.1V12.2C41.5 14.5 43.3 16.2 45.5 16.2Z" fill="white"/>
<path d="M86.9 41.5H78.8C76.6 41.5 74.8 43.3 74.8 45.5C74.8 47.7 76.6 49.5 78.8 49.5H86.9C89.1 49.5 90.9 47.7 90.9 45.5C90.9 43.3 89.1 41.5 86.9 41.5Z" fill="white"/>
<path d="M45.5 74.8C43.3 74.8 41.5 76.6 41.5 78.8V86.9C41.5 89.1 43.3 90.9 45.5 90.9C47.7 90.9 49.5 89.1 49.5 86.9V78.8C49.5 76.5 47.7 74.8 45.5 74.8Z" fill="white"/>
<path d="M16.2 45.5C16.2 43.3 14.4 41.5 12.2 41.5H4.1C1.9 41.5 0.1 43.3 0.1 45.5C0.1 47.7 1.9 49.5 4.1 49.5H12.2C14.5 49.5 16.2 47.7 16.2 45.5Z" fill="white"/>
<path d="M69 26C70 26 71 25.6 71.8 24.8L77.6 19C79.2 17.4 79.2 14.9 77.6 13.3C76 11.7 73.5 11.7 71.9 13.3L66.1 19.1C64.5 20.7 64.5 23.2 66.1 24.8C67 25.6 68 26 69 26Z" fill="white"/>
<path d="M71.8 66.2C70.2 64.6 67.7 64.6 66.1 66.2C64.5 67.8 64.5 70.3 66.1 71.9L71.9 77.7C72.7 78.5 73.7 78.9 74.7 78.9C75.7 78.9 76.7 78.5 77.5 77.7C79.1 76.1 79.1 73.6 77.5 72L71.8 66.2Z" fill="white"/>
<path d="M19.2 66.2L13.4 72C11.8 73.6 11.8 76.1 13.4 77.7C14.2 78.5 15.2 78.9 16.2 78.9C17.2 78.9 18.2 78.5 19 77.7L24.8 71.9C26.4 70.3 26.4 67.8 24.8 66.2C23.3 64.6 20.7 64.6 19.2 66.2Z" fill="white"/>
<path d="M19.2 24.8C19.9 25.6 21 26 22 26C23 26 24 25.6 24.8 24.8C26.4 23.2 26.4 20.7 24.8 19.1L19 13.3C17.4 11.7 14.9 11.7 13.3 13.3C11.7 14.9 11.7 17.4 13.3 19L19.2 24.8Z" fill="white"/>
</svg>
