<svg width="63" height="67" viewBox="0 0 63 67" fill="none" xmlns="http://www.w3.org/2000/svg">
<path d="M33.2 66.1C21.6 66.1 10.7 59.8 4.9 49.8C-4.1 34.2 1.3 14.2 16.8 5.2C22.1 2.1 28.3 0.599997 34.4 0.899998C35.9 0.999998 37.2 1.8 37.8 3.1C38.5 4.4 38.3 6 37.5 7.2C32.5 14.4 32.1 24 36.5 31.5C40.6 38.5 48.1 42.9 56.3 42.9C56.9 42.9 57.5 42.9 58.1 42.8C59.6 42.7 61 43.4 61.8 44.6C62.6 45.8 62.7 47.4 62 48.7C59.1 54.2 54.8 58.7 49.4 61.8C44.5 64.6 38.9 66.1 33.2 66.1ZM27.4 9.5C25.1 10 22.9 10.9 20.8 12.1C9.1 19 5 34.1 11.8 45.8C16.2 53.4 24.4 58.1 33.2 58.1C37.5 58.1 41.7 57 45.5 54.8C47.6 53.6 49.5 52.1 51.1 50.4C42.2 48.8 34.3 43.4 29.7 35.5C25.1 27.5 24.4 18 27.4 9.5Z" fill="white"/>
</svg>
