<svg width="91" height="71" viewBox="0 0 91 71" fill="none" xmlns="http://www.w3.org/2000/svg">
<path d="M51.5 38.3H50.4C50 36.7 49.4 34.9 48.4 33C45.1 26.8 39.2 23.4 31.9 23.4C24.5 23.4 18.6 26.8 15.4 33C14.4 35 13.8 37 13.4 38.6C5.6 40 0.199997 46.2 0.199997 54.3C0.199997 62.4 6 68.8 14 70.1C14.4 70.2 14.9 70.3 15.3 70.3H51.5C61 70.3 68.2 63.4 68.2 54.3C68.2 45 61.2 38.3 51.5 38.3ZM51.5 62.3H16.9C10.9 62.3 8.2 58.2 8.2 54.3C8.2 49.5 11.7 46.3 16.9 46.3C19 46.3 20.8 44.6 20.9 42.4C20.9 42.4 21 39.3 22.6 36.4C24.4 33 27.5 31.3 31.8 31.3C36.2 31.3 39.3 33 41.2 36.4C42.8 39.3 43 42.4 43 42.4C43.1 44.5 44.9 46.2 47 46.2H51.5C56.7 46.2 60.2 49.4 60.2 54.2C60.2 58.1 57.5 62.3 51.5 62.3Z" fill="white"/>
<path d="M74.3 32.8C74.3 24.2 67.3 17.2 58.7 17.2C55.6 17.2 52.5 18.1 50 19.9C48.6 20.8 48.3 22.7 49.2 24.1C50.1 25.5 52 25.8 53.4 24.9C55 23.8 56.9 23.3 58.8 23.3C64.1 23.3 68.4 27.6 68.4 32.9C68.4 34.5 68 36 67.3 37.3C66.5 38.8 67.1 40.6 68.6 41.3C69 41.5 69.5 41.6 70 41.6C71.1 41.6 72.1 41 72.7 40C73.7 37.8 74.3 35.3 74.3 32.8Z" fill="white"/>
<path d="M58.7 12.4C60.4 12.4 61.7 11.1 61.7 9.4V3.7C61.7 2 60.4 0.700001 58.7 0.700001C57 0.700001 55.7 2 55.7 3.7V9.4C55.7 11.1 57.1 12.4 58.7 12.4Z" fill="white"/>
<path d="M87.8 29.8H82C80.3 29.8 79 31.1 79 32.8C79 34.5 80.3 35.8 82 35.8H87.7C89.4 35.8 90.7 34.5 90.7 32.8C90.8 31.1 89.4 29.8 87.8 29.8Z" fill="white"/>
<path d="M75.2 19.3C76 19.3 76.7 19 77.3 18.4L81.3 14.4C82.5 13.2 82.5 11.3 81.3 10.2C80.1 9 78.2 9 77.1 10.2L73.1 14.2C71.9 15.4 71.9 17.3 73.1 18.4C73.7 19 74.4 19.3 75.2 19.3Z" fill="white"/>
<path d="M77.3 47.2C76.1 46 74.2 46 73.1 47.2C71.9 48.4 71.9 50.3 73.1 51.4L77.1 55.4C77.7 56 78.5 56.3 79.2 56.3C80 56.3 80.7 56 81.3 55.4C82.5 54.2 82.5 52.3 81.3 51.2L77.3 47.2Z" fill="white"/>
<path d="M40.1 18.4C40.7 19 41.5 19.3 42.2 19.3C43 19.3 43.7 19 44.3 18.4C45.5 17.2 45.5 15.3 44.3 14.2L40.3 10.2C39.1 9 37.2 9 36.1 10.2C34.9 11.4 34.9 13.3 36.1 14.4L40.1 18.4Z" fill="white"/>
</svg>
