<svg width="91" height="91" viewBox="0 0 91 91" fill="none" xmlns="http://www.w3.org/2000/svg">
<path d="M51.5 48.3H50.4C50 46.7 49.4 44.9 48.4 43C45.1 36.8 39.2 33.4 31.9 33.4C24.5 33.4 18.6 36.8 15.4 43C14.4 45 13.8 47 13.4 48.6C5.6 50 0.199997 56.2 0.199997 64.3C0.199997 72.4 6 78.8 14 80.1C14.4 80.2 14.9 80.3 15.3 80.3H51.5C61 80.3 68.2 73.4 68.2 64.3C68.2 55 61.2 48.3 51.5 48.3ZM51.5 72.3H16.9C10.9 72.3 8.2 68.2 8.2 64.3C8.2 59.5 11.7 56.3 16.9 56.3C19.1 56.3 20.8 54.6 20.9 52.4C20.9 51.3 21.5 41.3 31.8 41.3C36.2 41.3 39.3 43 41.2 46.4C42.8 49.3 43 52.4 43 52.4C43.1 54.5 44.9 56.2 47 56.2H51.5C56.7 56.2 60.2 59.4 60.2 64.2C60.2 68.1 57.5 72.3 51.5 72.3Z" fill="white"/>
<path d="M90.3 43.7C89.7 42.8 88.6 42.3 87.6 42.4C81 42.9 74.6 39.6 71.3 33.8C68 28.1 68.3 20.9 72 15.4C72.6 14.5 72.7 13.3 72.2 12.4C71.7 11.4 70.7 10.8 69.6 10.7C65 10.5 60.4 11.6 56.3 14C50.7 17.2 46.6 22.5 44.9 28.7C44.5 30.3 45.4 32 47 32.4C48.6 32.8 50.2 31.9 50.7 30.3C52 25.6 55.1 21.6 59.3 19.2C60.9 18.3 62.6 17.6 64.3 17.2C62 23.6 62.6 30.8 66 36.8C69.5 42.8 75.5 46.9 82.1 48.1C80.9 49.4 79.4 50.5 77.9 51.5C76.5 52.3 74.9 53 73.4 53.4C71.8 53.8 70.8 55.5 71.3 57.1C71.7 58.4 72.9 59.3 74.2 59.3C74.5 59.3 74.7 59.3 75 59.2C77.1 58.6 79.1 57.8 81 56.7C85 54.4 88.3 51 90.5 46.8C90.9 45.8 90.9 44.6 90.3 43.7Z" fill="white"/>
</svg>
