<svg width="91" height="91" viewBox="0 0 91 91" fill="none" xmlns="http://www.w3.org/2000/svg">
<path d="M62.8 69H26.6C26.1 69 25.7 68.9 25.3 68.8C17.3 67.6 11.5 61.2 11.5 53C11.5 44.9 16.9 38.7 24.7 37.3C25.1 35.7 25.7 33.7 26.7 31.7C29.9 25.5 35.7 22.1 43.2 22.1C50.6 22.1 56.5 25.5 59.7 31.7C60.7 33.6 61.3 35.5 61.7 37H62.8C72.5 37 79.5 43.7 79.5 53C79.5 62.1 72.3 69 62.8 69ZM28.2 61H62.8C68.8 61 71.5 56.9 71.5 53C71.5 48.2 68 45 62.8 45H58.3C56.2 45 54.4 43.3 54.3 41.2C54.3 41.2 54.1 38.1 52.5 35.2C50.6 31.7 47.5 30.1 43.1 30.1C32.8 30 32.2 40 32.2 41.1C32.1 43.3 30.4 45 28.2 45C23 45 19.5 48.2 19.5 53C19.5 56.8 22.2 61 28.2 61Z" fill="white"/>
</svg>
