<svg width="91" height="91" viewBox="0 0 91 91" fill="none" xmlns="http://www.w3.org/2000/svg">
<path d="M51.5 40H50.4C50 38.4 49.4 36.6 48.4 34.7C45.1 28.5 39.2 25.1 31.9 25.1C24.5 25.1 18.6 28.5 15.4 34.7C14.4 36.7 13.8 38.7 13.4 40.3C5.60001 41.8 0.200012 47.9 0.200012 56C0.200012 64.2 6.00001 70.6 14 71.8C14.4 71.9 14.9 72 15.3 72H51.5C61 72 68.2 65.1 68.2 56C68.2 46.8 61.2 40 51.5 40ZM51.5 64H16.9C10.9 64 8.20001 59.9 8.20001 56C8.20001 51.2 11.7 48 16.9 48C19.1 48 20.8 46.3 20.9 44.1C20.9 43 21.5 33 31.8 33C36.2 33 39.3 34.7 41.2 38.1C42.8 41 43 44.1 43 44.1C43.1 46.2 44.9 47.9 47 47.9H51.5C56.7 47.9 60.2 51.1 60.2 55.9C60.2 59.9 57.5 64 51.5 64Z" fill="white"/>
<path d="M78.9 29.4H78.3C78 28.3 77.6 27.1 76.9 25.8C74.6 21.4 70.4 19 65.2 19C60 19 55.8 21.4 53.6 25.8C52 28.9 51.9 31.9 51.9 32.3C51.9 33.9 53.1 35.3 54.8 35.4C56.4 35.5 57.8 34.2 57.9 32.5C58 31.2 58.6 25 65.3 25C72.1 25 72.8 31.3 72.8 32.5C72.9 34.1 74.2 35.4 75.8 35.4H78.9C82.4 35.4 84.7 37.5 84.7 40.7C84.7 43.3 82.9 46 78.9 46H75.3C73.6 46 72.3 47.3 72.3 49C72.3 50.7 73.6 52 75.3 52H78.9C85.6 52 90.7 47.1 90.7 40.7C90.8 34.1 85.8 29.4 78.9 29.4Z" fill="white"/>
</svg>
