<svg width="91" height="91" viewBox="0 0 91 91" fill="none" xmlns="http://www.w3.org/2000/svg">
<path d="M62.8 26.7H61.7C61.3 25.1 60.7 23.3 59.7 21.4C56.4 15.2 50.5 11.8 43.2 11.8C35.8 11.8 29.9 15.2 26.7 21.4C25.7 23.4 25.1 25.4 24.7 27C16.9 28.4 11.5 34.6 11.5 42.7C11.5 47.9 14 52.7 18.1 55.6C19.9 56.9 22.4 56.5 23.7 54.7C25 52.9 24.6 50.4 22.8 49.1C20.8 47.7 19.6 45.3 19.6 42.7C19.6 37.9 23.1 34.7 28.3 34.7C30.5 34.7 32.2 33 32.3 30.8C32.3 29.7 32.9 19.7 43.2 19.7C47.6 19.7 50.7 21.4 52.6 24.8C54.2 27.7 54.4 30.8 54.4 30.8C54.5 32.9 56.3 34.6 58.4 34.6H62.9C68.1 34.6 71.6 37.8 71.6 42.6C71.6 46.6 69 49.6 65.1 50.4C62.9 50.8 61.5 52.9 61.9 55.1C62.3 57 63.9 58.3 65.8 58.3C66.1 58.3 66.3 58.3 66.6 58.2C74.3 56.7 79.6 50.3 79.6 42.5C79.5 33.5 72.5 26.7 62.8 26.7Z" fill="white"/>
<path d="M34.7 43.5C32.8 43 30.9 44.1 30.4 46L24.8 66.7C24.3 68.6 25.4 70.5 27.3 71C27.6 71.1 27.9 71.1 28.2 71.1C29.7 71.1 31.2 70.1 31.6 68.5L37.2 47.8C37.7 45.9 36.6 44 34.7 43.5Z" fill="white"/>
<path d="M44.4 51.6C42.5 51.1 40.6 52.2 40.1 54.1L34.5 74.8C34 76.7 35.1 78.6 37 79.1C37.3 79.2 37.6 79.2 37.9 79.2C39.4 79.2 40.9 78.2 41.3 76.6L46.9 55.9C47.3 54.1 46.2 52.2 44.4 51.6Z" fill="white"/>
<path d="M58.4 43.5C56.5 43 54.6 44.1 54.1 46L48.5 66.7C48 68.6 49.1 70.5 51 71C51.3 71.1 51.6 71.1 51.9 71.1C53.4 71.1 54.9 70.1 55.3 68.5L60.9 47.8C61.4 45.9 60.3 44 58.4 43.5Z" fill="white"/>
</svg>
