<svg width="91" height="91" viewBox="0 0 91 91" fill="none" xmlns="http://www.w3.org/2000/svg">
<path d="M58.3 32.6H57.2C56.8 31 56.2 29.2 55.2 27.3C51.9 21.1 46 17.7 38.7 17.7C31.3 17.7 25.4 21.1 22.2 27.3C21.2 29.3 20.6 31.3 20.2 32.9C12.4 34.3 7 40.5 7 48.6C7 53.8 9.5 58.6 13.6 61.5C15.4 62.8 17.9 62.4 19.2 60.6C20.5 58.8 20.1 56.3 18.3 55C16.3 53.6 15.1 51.2 15.1 48.6C15.1 43.8 18.6 40.6 23.8 40.6C26 40.6 27.7 38.9 27.8 36.7C27.8 35.6 28.4 25.6 38.7 25.6C43.1 25.6 46.2 27.3 48.1 30.7C49.7 33.6 49.9 36.7 49.9 36.7C50 38.8 51.8 40.5 53.9 40.5H58.4C63.6 40.5 67.1 43.7 67.1 48.5C67.1 52.5 64.5 55.5 60.6 56.3C58.4 56.7 57 58.8 57.4 61C57.8 62.9 59.4 64.2 61.3 64.2C61.6 64.2 61.8 64.2 62.1 64.1C69.8 62.6 75.1 56.2 75.1 48.4C75 39.3 68 32.6 58.3 32.6Z" fill="white"/>
<path d="M66.4 6.8C61 6.8 55.9 9.2 52.4 13.4C51.3 14.7 51.5 16.6 52.8 17.6C54.1 18.7 56 18.5 57 17.2C59.3 14.4 62.7 12.8 66.4 12.8C73.1 12.8 78.6 18.3 78.6 25C78.6 27.9 77.6 30.7 75.7 32.9C74.6 34.2 74.8 36.1 76.1 37.1C76.7 37.6 77.4 37.8 78 37.8C78.9 37.8 79.7 37.4 80.3 36.7C83.1 33.4 84.6 29.2 84.6 24.9C84.6 14.9 76.4 6.8 66.4 6.8Z" fill="white"/>
<path d="M30.2 49.4C28.3 48.9 26.4 50 25.9 51.9L20.3 72.6C19.8 74.5 20.9 76.4 22.8 76.9C23.1 77 23.4 77 23.7 77C25.2 77 26.7 76 27.1 74.4L32.7 53.7C33.2 51.8 32.1 49.9 30.2 49.4Z" fill="white"/>
<path d="M39.8 57.5C37.9 57 36 58.1 35.5 60L29.9 80.7C29.4 82.6 30.5 84.5 32.4 85C32.7 85 33 85 33.3 85C34.8 85 36.3 84 36.7 82.4L42.3 61.7C42.8 59.9 41.7 58 39.8 57.5Z" fill="white"/>
<path d="M53.9 49.4C52 48.9 50.1 50 49.6 51.9L44 72.5C43.5 74.4 44.6 76.3 46.5 76.8C46.8 76.9 47.1 76.9 47.4 76.9C48.9 76.9 50.4 75.9 50.8 74.3L56.4 53.6C56.9 51.8 55.8 49.9 53.9 49.4Z" fill="white"/>
</svg>
