<svg width="91" height="91" viewBox="0 0 91 91" fill="none" xmlns="http://www.w3.org/2000/svg">
<path d="M25.2 50.5C23.3 50 21.4 51.1 20.9 53L15.3 73.7C14.8 75.6 15.9 77.5 17.8 78C18.1 78.1 18.4 78.1 18.7 78.1C20.2 78.1 21.7 77.1 22.1 75.5L27.7 54.8C28.2 52.9 27.1 51 25.2 50.5Z" fill="white"/>
<path d="M34.8 58.6C32.9 58.1 31 59.2 30.5 61.1L24.9 81.8C24.4 83.7 25.5 85.6 27.4 86.1C27.7 86.2 28 86.2 28.3 86.2C29.8 86.2 31.3 85.2 31.7 83.6L37.3 62.9C37.8 61.1 36.7 59.1 34.8 58.6Z" fill="white"/>
<path d="M48.9 50.5C47 50 45.1 51.1 44.6 53L39 73.6C38.5 75.5 39.6 77.4 41.5 77.9C41.8 78 42.1 78 42.4 78C43.9 78 45.4 77 45.8 75.4L51.4 54.7C51.8 52.9 50.7 51 48.9 50.5Z" fill="white"/>
<path d="M53.3 33.7H52.2C51.8 32.1 51.2 30.3 50.2 28.4C46.9 22.2 41 18.8 33.7 18.8C26.3 18.8 20.4 22.2 17.2 28.4C16.2 30.4 15.6 32.4 15.2 34C7.3 35.5 2 41.6 2 49.7C2 54.9 4.5 59.7 8.6 62.6C10.4 63.9 12.9 63.5 14.2 61.7C15.5 59.9 15.1 57.4 13.3 56.1C11.3 54.7 10.1 52.3 10.1 49.7C10.1 44.9 13.6 41.7 18.8 41.7C21 41.7 22.7 40 22.8 37.8C22.8 36.7 23.4 26.7 33.7 26.7C38.1 26.7 41.2 28.4 43.1 31.8C44.7 34.7 44.9 37.8 44.9 37.8C45 39.9 46.8 41.6 48.9 41.6H53.4C58.6 41.6 62.1 44.8 62.1 49.6C62.1 53.6 59.5 56.6 55.6 57.4C53.4 57.8 52 59.9 52.4 62.1C52.8 64 54.4 65.3 56.3 65.3C56.6 65.3 56.8 65.3 57.1 65.2C64.8 63.7 70.1 57.3 70.1 49.5C70 40.5 62.9 33.7 53.3 33.7Z" fill="white"/>
<path d="M88.5 30.6C87.9 29.7 86.8 29.2 85.8 29.3C81 29.7 76.3 27.2 73.9 23C71.5 18.8 71.7 13.5 74.4 9.6C75 8.7 75.1 7.5 74.6 6.6C74.1 5.6 73.1 5 72 4.9C68.3 4.7 64.6 5.7 61.4 7.5C56.1 10.6 52.5 15.9 51.7 22C51.5 23.6 52.6 25.1 54.3 25.4C55.9 25.6 57.4 24.5 57.7 22.8C58.3 18.5 60.7 14.9 64.4 12.7C65.2 12.2 66 11.9 66.9 11.6C65.5 16.4 66.1 21.6 68.7 26C71.3 30.4 75.5 33.5 80.3 34.7C79.6 35.3 78.9 35.8 78.1 36.3C77.3 36.8 76.4 37.1 75.6 37.4C74 37.9 73.2 39.6 73.7 41.2C74.1 42.5 75.3 43.3 76.5 43.3C76.8 43.3 77.1 43.3 77.4 43.1C78.7 42.7 79.9 42.1 81 41.5C84.2 39.6 86.8 36.9 88.6 33.6C89.2 32.6 89.1 31.5 88.5 30.6Z" fill="white"/>
</svg>
