<svg width="91" height="91" viewBox="0 0 91 91" fill="none" xmlns="http://www.w3.org/2000/svg">
<path d="M23.4 57.6C21.5 57.1 19.6 58.2 19.1 60.1L13.5 80.8C13 82.7 14.1 84.6 16 85.1C16.3 85.2 16.6 85.2 16.9 85.2C18.4 85.2 19.9 84.2 20.3 82.6L25.9 61.9C26.4 60.1 25.3 58.1 23.4 57.6Z" fill="white"/>
<path d="M45.8 65.9H41.4L46.9 58.2C47.2 57.7 47.3 57.1 47 56.6C46.7 56.1 46.2 55.8 45.7 55.8H34.7C34.1 55.8 33.5 56.2 33.3 56.8L27.2 72.6C27 73.1 27.1 73.6 27.4 74C27.7 74.4 28.1 74.6 28.6 74.6H31.8L27.6 85.6C27.3 86.3 27.6 87 28.2 87.4C28.4 87.5 28.7 87.6 29 87.6C29.4 87.6 29.8 87.4 30.1 87.1L46.7 68.3C47.1 67.9 47.2 67.2 46.9 66.7C46.9 66.3 46.4 65.9 45.8 65.9Z" fill="white"/>
<path d="M74.4 35.3C74.4 26.7 67.4 19.7 58.8 19.7C55.7 19.7 52.6 20.6 50.1 22.4C48.7 23.3 48.4 25.2 49.3 26.6C50.2 28 52.1 28.3 53.5 27.4C55.1 26.3 57 25.8 58.9 25.8C64.2 25.8 68.5 30.1 68.5 35.4C68.5 37 68.1 38.5 67.4 39.8C66.6 41.3 67.2 43.1 68.7 43.8C69.1 44 69.6 44.1 70.1 44.1C71.2 44.1 72.2 43.5 72.8 42.5C73.8 40.3 74.4 37.9 74.4 35.3Z" fill="white"/>
<path d="M58.8 15C60.5 15 61.8 13.7 61.8 12V6.3C61.8 4.6 60.5 3.3 58.8 3.3C57.1 3.3 55.8 4.6 55.8 6.3V12C55.8 13.7 57.1 15 58.8 15Z" fill="white"/>
<path d="M87.8 32.3H82.1C80.4 32.3 79.1 33.6 79.1 35.3C79.1 37 80.4 38.3 82.1 38.3H87.8C89.5 38.3 90.8 37 90.8 35.3C90.8 33.6 89.5 32.3 87.8 32.3Z" fill="white"/>
<path d="M75.3 21.8C76.1 21.8 76.8 21.5 77.4 20.9L81.4 16.9C82.6 15.7 82.6 13.8 81.4 12.7C80.2 11.5 78.3 11.5 77.2 12.7L73.2 16.7C72 17.9 72 19.8 73.2 20.9C73.7 21.6 74.5 21.8 75.3 21.8Z" fill="white"/>
<path d="M77.4 49.7C76.2 48.5 74.3 48.5 73.2 49.7C72 50.9 72 52.8 73.2 53.9L77.2 57.9C77.8 58.5 78.6 58.8 79.3 58.8C80.1 58.8 80.8 58.5 81.4 57.9C82.6 56.7 82.6 54.8 81.4 53.7L77.4 49.7Z" fill="white"/>
<path d="M40.1 21C40.7 21.6 41.5 21.9 42.2 21.9C43 21.9 43.7 21.6 44.3 21C45.5 19.8 45.5 17.9 44.3 16.8L40.3 12.8C39.1 11.6 37.2 11.6 36.1 12.8C34.9 14 34.9 15.9 36.1 17L40.1 21Z" fill="white"/>
<path d="M51.5 40.9H50.4C50 39.3 49.4 37.5 48.4 35.6C45.1 29.4 39.2 26 31.9 26C24.5 26 18.6 29.4 15.4 35.6C14.4 37.6 13.8 39.6 13.4 41.2C5.5 42.6 0.199997 48.8 0.199997 56.9C0.199997 62.1 2.7 66.9 6.8 69.8C8.6 71.1 11.1 70.7 12.4 68.9C13.7 67.1 13.3 64.6 11.5 63.3C9.5 61.9 8.3 59.5 8.3 56.9C8.3 52.1 11.8 48.9 17 48.9C19.2 48.9 20.9 47.2 21 45C21 43.9 21.6 33.9 31.9 33.9C36.3 33.9 39.4 35.6 41.3 39C42.9 41.9 43.1 45 43.1 45C43.2 47.1 45 48.8 47.1 48.8H51.6C56.8 48.8 60.3 52 60.3 56.8C60.3 60.8 57.7 63.8 53.8 64.6C51.6 65 50.2 67.1 50.6 69.3C51 71.2 52.6 72.5 54.5 72.5C54.8 72.5 55 72.5 55.3 72.4C63 70.9 68.3 64.5 68.3 56.7C68.2 47.6 61.2 40.9 51.5 40.9Z" fill="white"/>
</svg>
