<svg width="91" height="91" viewBox="0 0 91 91" fill="none" xmlns="http://www.w3.org/2000/svg">
<path d="M53.3 36.5H52.2C51.8 34.9 51.2 33.1 50.2 31.2C46.9 25 41 21.6 33.7 21.6C26.3 21.6 20.4 25 17.2 31.2C16.2 33.2 15.6 35.2 15.2 36.8C7.3 38.3 2 44.4 2 52.5C2 57.7 4.5 62.5 8.6 65.4C10.4 66.7 12.9 66.3 14.2 64.5C15.5 62.7 15.1 60.2 13.3 58.9C11.3 57.5 10.1 55.1 10.1 52.5C10.1 47.7 13.6 44.5 18.8 44.5C21 44.5 22.7 42.8 22.8 40.6C22.8 39.5 23.4 29.5 33.7 29.5C38.1 29.5 41.2 31.2 43.1 34.6C44.7 37.5 44.9 40.6 44.9 40.6C45 42.7 46.8 44.4 48.9 44.4H53.4C58.6 44.4 62.1 47.6 62.1 52.4C62.1 56.4 59.5 59.4 55.6 60.2C53.4 60.6 52 62.7 52.4 64.9C52.8 66.8 54.4 68.1 56.3 68.1C56.6 68.1 56.8 68.1 57.1 68C64.8 66.5 70.1 60.1 70.1 52.3C70 43.3 62.9 36.5 53.3 36.5Z" fill="white"/>
<path d="M88.5 33.4C87.9 32.5 86.8 32 85.8 32.1C81 32.5 76.3 30 73.9 25.8C71.5 21.6 71.7 16.3 74.4 12.4C75 11.5 75.1 10.3 74.6 9.4C74.1 8.4 73.1 7.8 72 7.7C68.3 7.5 64.6 8.5 61.4 10.3C56.1 13.4 52.5 18.7 51.7 24.8C51.5 26.4 52.6 27.9 54.3 28.2C55.9 28.4 57.4 27.3 57.7 25.6C58.3 21.3 60.7 17.7 64.4 15.5C65.2 15 66 14.7 66.9 14.4C65.5 19.2 66.1 24.4 68.7 28.8C71.3 33.2 75.5 36.3 80.3 37.5C79.6 38.1 78.9 38.6 78.1 39.1C77.3 39.6 76.4 39.9 75.6 40.2C74 40.7 73.2 42.4 73.7 44C74.1 45.3 75.3 46.1 76.5 46.1C76.8 46.1 77.1 46.1 77.4 45.9C78.7 45.5 79.9 44.9 81 44.3C84.2 42.4 86.8 39.7 88.6 36.4C89.2 35.4 89.1 34.3 88.5 33.4Z" fill="white"/>
<path d="M25.2 53.3C23.3 52.8 21.4 53.9 20.9 55.8L15.3 76.5C14.8 78.4 15.9 80.3 17.8 80.8C18.1 80.9 18.4 80.9 18.7 80.9C20.2 80.9 21.7 79.9 22.1 78.3L27.7 57.6C28.2 55.7 27.1 53.8 25.2 53.3Z" fill="white"/>
<path d="M47.6 61.6H43.2L48.7 53.9C49 53.4 49.1 52.8 48.8 52.3C48.5 51.8 48 51.5 47.5 51.5H36.5C35.9 51.5 35.3 51.9 35.1 52.5L29 68.3C28.8 68.8 28.9 69.3 29.2 69.7C29.5 70.1 29.9 70.3 30.4 70.3H33.6L29.4 81.3C29.1 82 29.4 82.7 30 83.1C30.2 83.2 30.5 83.3 30.8 83.3C31.2 83.3 31.6 83.1 31.9 82.8L48.5 64C48.9 63.6 49 62.9 48.7 62.4C48.7 62 48.2 61.6 47.6 61.6Z" fill="white"/>
</svg>
