<svg width="91" height="91" viewBox="0 0 91 91" fill="none" xmlns="http://www.w3.org/2000/svg">
<path d="M45.5 31.9C47.7 31.9 49.5 30.1 49.5 27.9V23.9C49.5 21.7 47.7 19.9 45.5 19.9C43.3 19.9 41.5 21.7 41.5 23.9V27.9C41.5 30.2 43.3 31.9 45.5 31.9Z" fill="white"/>
<path d="M45.5 40.5C44.2 40.5 42.9 41 42 42C41.1 42.9 40.5 44.2 40.5 45.5C40.5 46.8 41 48.1 42 49C42.9 49.9 44.2 50.5 45.5 50.5C46.8 50.5 48.1 50 49 49C49.9 48.1 50.5 46.8 50.5 45.5C50.5 44.2 50 42.9 49 42C48.1 41 46.8 40.5 45.5 40.5Z" fill="white"/>
<path d="M45.5 59.1C43.3 59.1 41.5 60.9 41.5 63.1V67.1C41.5 69.3 43.3 71.1 45.5 71.1C47.7 71.1 49.5 69.3 49.5 67.1V63.1C49.5 60.8 47.7 59.1 45.5 59.1Z" fill="white"/>
<path d="M60.7 40.7C61.4 40.7 62.1 40.5 62.7 40.2L66.2 38.2C68.1 37.1 68.8 34.6 67.7 32.7C66.6 30.8 64.1 30.1 62.2 31.2L58.7 33.2C56.8 34.3 56.1 36.8 57.2 38.7C58 40 59.3 40.7 60.7 40.7Z" fill="white"/>
<path d="M28.3 50.8L24.8 52.8C22.9 53.9 22.2 56.4 23.3 58.3C24 59.6 25.4 60.3 26.8 60.3C27.5 60.3 28.2 60.1 28.8 59.8L32.3 57.8C34.2 56.7 34.9 54.2 33.8 52.3C32.7 50.4 30.2 49.7 28.3 50.8Z" fill="white"/>
<path d="M66.2 52.8L62.7 50.8C60.8 49.7 58.3 50.4 57.2 52.3C56.1 54.2 56.8 56.7 58.7 57.8L62.2 59.8C62.8 60.2 63.5 60.3 64.2 60.3C65.6 60.3 66.9 59.6 67.7 58.3C68.8 56.4 68.1 53.9 66.2 52.8Z" fill="white"/>
<path d="M32.3 33.3L28.8 31.3C26.9 30.2 24.4 30.8 23.3 32.8C22.2 34.8 22.8 37.2 24.8 38.3L28.3 40.3C28.9 40.7 29.6 40.8 30.3 40.8C31.7 40.8 33 40.1 33.8 38.8C34.9 36.8 34.2 34.4 32.3 33.3Z" fill="white"/>
</svg>
