<svg width="91" height="91" viewBox="0 0 91 91" fill="none" xmlns="http://www.w3.org/2000/svg">
<path d="M18.7 32.1H66.5C68.7 32.1 70.5 30.3 70.5 28.1C70.5 25.9 68.7 24.1 66.5 24.1H18.7C16.5 24.1 14.7 25.9 14.7 28.1C14.7 30.3 16.5 32.1 18.7 32.1Z" fill="white"/>
<path d="M68 45.8C68 43.6 66.2 41.8 64 41.8H4.09998C1.89998 41.8 0.0999756 43.6 0.0999756 45.8C0.0999756 48 1.89998 49.8 4.09998 49.8H64C66.2 49.8 68 48 68 45.8Z" fill="white"/>
<path d="M86.9 59.4H27C24.8 59.4 23 61.2 23 63.4C23 65.6 24.8 67.4 27 67.4H86.9C89.1 67.4 90.9 65.6 90.9 63.4C90.9 61.2 89.1 59.4 86.9 59.4Z" fill="white"/>
<path d="M78.4 32.6H78.6C81.1 32.6 83.1 30.6 83.1 28.1C83.1 25.6 81.1 23.6 78.6 23.6H78.4C75.9 23.6 73.9 25.6 73.9 28.1C73.9 30.6 75.9 32.6 78.4 32.6Z" fill="white"/>
</svg>
